<svg width="20" height="19" viewBox="0 0 20 19" fill="none" xmlns="http://www.w3.org/2000/svg">
<path d="M17.35 17.0679V6.56906L9.75 1.93209L2.15 6.56906V17.0679H5.95V14.4113C5.95 13.3865 6.35036 12.4036 7.06299 11.679C7.77563 10.9543 8.74218 10.5472 9.75 10.5472C10.7578 10.5472 11.7244 10.9543 12.437 11.679C13.1496 12.4036 13.55 13.3865 13.55 14.4113V17.0679H17.35ZM11.65 19V14.4113C11.65 13.8989 11.4498 13.4075 11.0935 13.0452C10.7372 12.6828 10.2539 12.4793 9.75 12.4793C9.24609 12.4793 8.76282 12.6828 8.4065 13.0452C8.05018 13.4075 7.85 13.8989 7.85 14.4113V19H2.15C1.64609 19 1.16282 18.7964 0.806497 18.4341C0.450178 18.0718 0.25 17.5803 0.25 17.0679V6.56906C0.249997 6.23542 0.334959 5.90746 0.496613 5.61712C0.658268 5.32679 0.891104 5.08397 1.17245 4.91231L8.77245 0.275339C9.06774 0.0951713 9.40563 0 9.75 0C10.0944 0 10.4323 0.0951713 10.7276 0.275339L18.3275 4.91231C18.6089 5.08397 18.8417 5.32679 19.0034 5.61712C19.165 5.90746 19.25 6.23542 19.25 6.56906V17.0679C19.25 17.5803 19.0498 18.0718 18.6935 18.4341C18.3372 18.7964 17.8539 19 17.35 19H11.65Z" fill="currentColor"/>
</svg>
