<svg width="22" height="21" viewBox="0 0 22 21" fill="none" xmlns="http://www.w3.org/2000/svg">
<path d="M11.125 20C16.3717 20 20.625 15.7467 20.625 10.5C20.625 5.25329 16.3717 1 11.125 1C5.87829 1 1.625 5.25329 1.625 10.5C1.625 15.7467 5.87829 20 11.125 20Z" stroke="currentColor" stroke-width="1.6" stroke-linecap="round" stroke-linejoin="round"/>
<path d="M11.1257 11.556C12.8746 11.556 14.2923 10.1382 14.2923 8.38932C14.2923 6.64042 12.8746 5.22266 11.1257 5.22266C9.37675 5.22266 7.95898 6.64042 7.95898 8.38932C7.95898 10.1382 9.37675 11.556 11.1257 11.556Z" stroke="currentColor" stroke-width="1.6" stroke-linecap="round" stroke-linejoin="round"/>
<path d="M4.96924 17.7299C5.2305 16.8604 5.76509 16.0982 6.49372 15.5565C7.22235 15.0148 8.10619 14.7224 9.01413 14.7227H13.2363C14.1455 14.7223 15.0304 15.0155 15.7595 15.5584C16.4887 16.1014 17.0231 16.8652 17.2833 17.7363" stroke="currentColor" stroke-width="1.6" stroke-linecap="round" stroke-linejoin="round"/>
</svg>
